<svg xmlns="http://www.w3.org/2000/svg" width="141" height="135" fill="none" viewBox="0 0 141 135">
  <path fill="url(#a)" d="M116.809 115.254c-3.24 3.344-6.141 5.308-8.364 6.791-21.659 14.463-46.421 10.296-54.074 8.869-12.354-2.299-22.776-3.919-31.733-12.014-20.355-18.391-19.366-56.75-3.81-80.514C20.674 35.569 36.2 12.549 61.016 9.304c.607-.08 1.06-.122 1.455-.165 3.838-.405 27.626-2.552 47.024 13.7 2.779 2.327 7.244 6.523 11.388 12.923 15.146 23.392 15.198 59.632-4.074 79.492Z" opacity=".3"/>
  <path fill="url(#b)" d="M128.428 64.999c-.075-.443-.697-.49-.838-.061-1.342 4.14-5.195 14.882-10.691 20.444-8.948 9.061-15.259 24.098-10.083 32.218.005.004 30.037-4.3 21.612-52.601Z"/>
  <path fill="#fff" d="M127.368 70.942s-.004.043-.019.132a40.712 40.712 0 0 1-.367 1.823 119.58 119.58 0 0 1-1.248 5.082 145.284 145.284 0 0 1-2.119 7.088 169.521 169.521 0 0 1-1.375 3.941l-.368 1.003c-.127.335-.259.67-.386 1.003-.254.674-.527 1.343-.796 2.011-.268.67-.556 1.333-.833 1.997-.292.655-.584 1.31-.876 1.96-.306.64-.598 1.285-.905 1.912-.155.31-.306.621-.461.932-.151.311-.302.612-.462.914a71.027 71.027 0 0 1-1.874 3.428 74.906 74.906 0 0 1-1.841 2.977l-.872 1.29c-.282.405-.565.777-.824 1.135-.132.179-.259.348-.377.513l-.367.467c-.235.296-.452.574-.65.819-.4.49-.735.857-.951 1.116-.222.254-.339.391-.339.391a.076.076 0 0 1-.109.009.075.075 0 0 1-.009-.108v-.005l.325-.405c.207-.263.523-.645.914-1.139.188-.255.395-.532.621-.834l.353-.476c.118-.169.236-.343.363-.522.25-.363.518-.74.791-1.149.269-.41.551-.843.843-1.296a70.854 70.854 0 0 0 1.78-2.99 89.425 89.425 0 0 0 1.832-3.429 120.022 120.022 0 0 0 .909-1.841c.302-.626.589-1.267.891-1.907.287-.65.574-1.3.861-1.955.273-.664.565-1.319.834-1.987.268-.669.546-1.333.801-2.002.131-.334.259-.669.39-.998.123-.335.25-.669.372-.999.5-1.328.957-2.642 1.39-3.918.428-1.281.843-2.515 1.205-3.697.372-1.182.702-2.303 1.004-3.339.292-1.04.565-1.992.791-2.84a89.77 89.77 0 0 0 .565-2.2c.146-.611.268-1.092.339-1.422.033-.16.061-.287.08-.367.014-.085.024-.132.024-.132v-.01c.009-.042.047-.07.089-.06.042.004.066.042.061.084Z" opacity=".43"/>
  <path fill="url(#c)" d="M107.649 121.377s.099-5.468 5.595-11.021c5.096-5.147 17.628-17.062 20.506-23.646.127-.292.56-.207.565.113.042 3.414-.518 11.976-6.401 20.501-7.587 10.992-20.265 14.053-20.265 14.053Z"/>
  <path fill="#fff" d="M131.771 92.828s-.009.14-.051.405a8.877 8.877 0 0 1-.085.48c-.033.188-.09.405-.146.645-.057.245-.137.504-.217.796-.084.287-.198.594-.306.923-.122.325-.249.669-.4 1.032-.16.353-.316.734-.504 1.116-.372.767-.81 1.587-1.328 2.42-.264.415-.518.848-.824 1.263-.302.419-.589.857-.928 1.271a33.305 33.305 0 0 1-2.134 2.51c-.39.405-.777.81-1.182 1.215-.405.391-.814.782-1.219 1.178-.825.777-1.653 1.559-2.478 2.303-.828.749-1.648 1.474-2.449 2.171-.805.692-1.582 1.361-2.321 1.992-.74.631-1.441 1.224-2.073 1.785a56.487 56.487 0 0 0-1.709 1.549c-.25.236-.471.467-.678.678-.203.217-.382.42-.551.599-.316.376-.565.668-.711.89-.156.212-.236.329-.236.329l-.005.005a.081.081 0 0 1-.108.019.076.076 0 0 1-.019-.104s.076-.122.222-.348c.136-.231.367-.547.673-.942.16-.189.334-.405.532-.631.203-.222.419-.466.66-.716a37.27 37.27 0 0 1 1.657-1.63c.622-.584 1.305-1.201 2.03-1.846.725-.65 1.488-1.332 2.28-2.039.791-.706 1.601-1.441 2.42-2.195.41-.376.82-.758 1.229-1.139l1.23-1.159 1.219-1.177 1.173-1.187a40.29 40.29 0 0 0 2.133-2.444c.344-.401.636-.829.942-1.229.311-.401.575-.82.848-1.22.537-.8.994-1.592 1.394-2.331.203-.368.372-.735.546-1.079.161-.348.311-.683.448-.994.259-.635.471-1.196.621-1.662.076-.236.142-.443.194-.631.056-.184.094-.344.122-.471.061-.26.085-.396.085-.396 0-.004.005-.01.009-.01-.004-.004-.005 0-.005.006Z" opacity=".45"/>
  <path fill="url(#d)" d="M32.297 18.488c-1.978 5.93-12.094 40.888 19.008 56.274 0 0 12.584-21.301-18.108-56.458a.529.529 0 0 0-.9.184Z"/>
  <path fill="#fff" d="M34.473 24.436s.24 2.981.782 7.436a268.078 268.078 0 0 0 1.036 7.597c.207 1.384.443 2.816.688 4.267.127.725.254 1.455.386 2.19.136.73.268 1.469.414 2.199.146.734.283 1.47.438 2.194.15.73.302 1.456.462 2.171.08.358.16.716.235 1.074.085.353.165.707.25 1.06.16.702.334 1.394.504 2.072.687 2.718 1.422 5.223 2.142 7.342.17.532.358 1.036.533 1.512.084.24.17.471.254.697.085.226.174.443.254.655.17.419.32.82.471 1.177.156.358.302.688.429.99.066.15.127.291.183.423.062.132.123.254.175.367l.278.58.23.48.005.014a.31.31 0 0 1-.146.414.31.31 0 0 1-.414-.145l-.231-.49-.278-.589-.174-.372a23.752 23.752 0 0 0-.184-.429c-.127-.301-.273-.64-.428-1.003-.156-.367-.302-.767-.472-1.196-.08-.212-.169-.433-.254-.664-.08-.23-.165-.466-.25-.706-.169-.486-.357-.994-.522-1.531-.711-2.138-1.432-4.667-2.1-7.399-.165-.683-.335-1.375-.495-2.081l-.24-1.065c-.076-.358-.156-.715-.231-1.078-.156-.72-.302-1.45-.447-2.18-.151-.73-.283-1.47-.424-2.205-.142-.734-.264-1.474-.396-2.209l-.367-2.194a248.215 248.215 0 0 1-1.634-11.896c-.51-4.465-.726-7.456-.726-7.456a.132.132 0 0 1 .123-.14c.07-.01.132.046.141.117Z" opacity=".86"/>
  <path fill="url(#e)" d="M15.927 25.778c.01-.617.843-.81 1.12-.259 2.7 5.327 10.216 19.074 18.853 25.446 14.067 10.38 25.832 29.42 20.538 41.542 0 0-41.641.566-40.511-66.729Z"/>
  <path fill="#fff" d="m18.81 33.568.056.17c.042.108.099.268.188.484.165.434.424 1.06.754 1.86.334.797.744 1.767 1.229 2.869.48 1.106 1.05 2.34 1.667 3.687.626 1.342 1.31 2.798 2.063 4.319a230.824 230.824 0 0 0 2.416 4.766c.861 1.639 1.761 3.33 2.722 5.025.24.424.48.848.716 1.276.245.424.494.848.739 1.272.49.852 1.003 1.695 1.512 2.543.508.848 1.04 1.677 1.559 2.515a373.6 373.6 0 0 0 1.587 2.468c.546.805 1.069 1.615 1.615 2.397.273.39.546.777.815 1.163.136.193.268.386.4.575l.41.565.815 1.111c.136.184.268.368.4.547.136.178.273.357.41.532.546.701 1.06 1.408 1.6 2.062.265.33.528.655.787.98.127.16.26.32.387.48l.39.462c.519.607 1.013 1.2 1.503 1.757.494.55.975 1.073 1.427 1.577.461.495.909.952 1.323 1.39.207.216.41.428.608.63.202.198.395.387.584.566l1.026.998c.631.589 1.145 1.036 1.489 1.347l.527.476h.005c.033.028.033.08.004.108-.028.033-.075.033-.108.01l-.541-.462c-.349-.306-.877-.735-1.522-1.319-.315-.296-.668-.621-1.05-.98l-.598-.555a77.366 77.366 0 0 0-.622-.617c-.423-.428-.885-.876-1.356-1.366l-1.45-1.563c-.5-.551-.999-1.14-1.531-1.743-.132-.15-.264-.306-.396-.457l-.39-.475c-.264-.32-.533-.645-.801-.975a98.633 98.633 0 0 1-3.269-4.248c-.136-.189-.277-.377-.414-.565l-.405-.575c-.273-.386-.546-.772-.82-1.163-.55-.782-1.078-1.592-1.63-2.397a205.42 205.42 0 0 1-1.6-2.473c-.26-.419-.523-.838-.782-1.262-.26-.419-.523-.843-.772-1.267-.504-.852-1.022-1.7-1.507-2.557-.245-.429-.495-.852-.74-1.281-.24-.429-.476-.857-.716-1.281-.951-1.7-1.85-3.4-2.708-5.044a203.978 203.978 0 0 1-2.378-4.799 191.647 191.647 0 0 1-2.02-4.352 158.123 158.123 0 0 1-2.807-6.612 69.862 69.862 0 0 1-.895-2.383l-.057-.174a.078.078 0 0 1 .052-.099.079.079 0 0 1 .1.047v.01Z" opacity=".43"/>
  <path fill="url(#f)" d="M57.097 93.45s-1.893-8.35-12.075-15.11c-9.447-6.267-32.434-20.542-38.938-29.72-.287-.405-.923-.136-.829.349 1.017 5.246 4.606 18.188 16.328 29.382 15.117 14.44 35.514 15.1 35.514 15.1Z"/>
  <path fill="#fff" d="M11.08 57.365s.076.207.25.584c.085.188.194.419.33.688.07.131.137.277.217.433.08.15.17.31.263.48.18.344.41.707.641 1.107.24.4.523.815.815 1.267.306.442.64.904.993 1.394.184.24.372.485.566.734.193.25.381.514.602.759a43.525 43.525 0 0 0 2.868 3.155l.82.805c.141.132.273.278.42.405.145.132.291.264.442.396.297.264.593.537.895.805.15.132.296.278.456.405.16.127.316.26.476.391a61.586 61.586 0 0 0 4.046 3.085c.72.48 1.445.975 2.175 1.455.744.471 1.493.942 2.242 1.418.754.461 1.507.927 2.256 1.384.753.453 1.507.905 2.251 1.357.749.442 1.493.88 2.228 1.318l2.185 1.267c1.436.83 2.826 1.63 4.144 2.388 1.319.758 2.567 1.479 3.707 2.162a65.144 65.144 0 0 1 3.07 1.945c.448.301.857.603 1.239.876.372.282.711.55 1.017.79.594.505 1.055.91 1.338 1.216.292.297.452.457.452.457a.08.08 0 0 1 0 .108c-.028.028-.076.028-.108 0l-.005-.005-.462-.433c-.292-.292-.767-.669-1.365-1.154-.311-.226-.65-.485-1.032-.753-.386-.255-.8-.547-1.253-.834a85.597 85.597 0 0 0-3.099-1.855c-1.144-.664-2.406-1.361-3.734-2.1-1.328-.74-2.732-1.517-4.182-2.327l-2.195-1.253c-.74-.429-1.488-.867-2.242-1.305-.748-.447-1.507-.894-2.26-1.351-.754-.462-1.507-.928-2.265-1.39-.75-.47-1.498-.941-2.242-1.412-.74-.49-1.465-.994-2.19-1.484-1.427-1.017-2.802-2.058-4.06-3.15-.16-.133-.32-.27-.475-.4-.16-.133-.306-.279-.457-.415-.302-.278-.598-.556-.895-.83-.603-.531-1.13-1.115-1.667-1.662a43.957 43.957 0 0 1-2.816-3.259c-.212-.254-.4-.527-.59-.781-.188-.26-.371-.51-.55-.754-.18-.245-.335-.5-.495-.74-.155-.24-.315-.47-.457-.701-.273-.466-.546-.895-.767-1.305-.222-.414-.438-.786-.603-1.135-.174-.348-.33-.659-.443-.937a15.483 15.483 0 0 1-.296-.706c-.151-.387-.217-.598-.217-.598 0-.005 0-.01.005-.014.004 0 .01.004.014.009Z" opacity=".45"/>
  <path fill="url(#g)" d="M108.351 123.275H27.027a5.944 5.944 0 0 1-5.943-5.944V64.373a5.941 5.941 0 0 1 5.614-5.934l84.465-4.71a5.944 5.944 0 0 1 6.268 6.26l-3.141 57.663a5.947 5.947 0 0 1-5.939 5.623Z"/>
  <path fill="url(#h)" d="m69.587 91.32 44.458-37.026a5.859 5.859 0 0 0-2.882-.565l-84.465 4.71c-1.45.08-2.76.678-3.744 1.61l33.272 30.942c3.608 3.358 9.551 3.504 13.361.33Z"/>
  <path fill="#fff" d="M63.408 89.484a9.333 9.333 0 0 1-6.179-2.35L44.693 76.066a.887.887 0 1 1 1.172-1.332L58.402 85.8a7.532 7.532 0 0 0 9.424.471l6.494-4.667a.888.888 0 0 1 1.036 1.44l-6.494 4.668a9.29 9.29 0 0 1-5.454 1.77ZM40.62 72.172a.907.907 0 0 1-.59-.222l-1.686-1.488a.887.887 0 1 1 1.173-1.333l1.686 1.489a.887.887 0 0 1-.584 1.554Z"/>
  <path fill="url(#i)" d="m52.878 36.11-3.391 18.17 10.577-9.301-7.186-8.868Z"/>
  <path fill="url(#j)" d="m129.869 41.593-73.52 3.57a3.31 3.31 0 0 1-3.472-3.307V11.607a6.087 6.087 0 0 1 5.897-6.085l66.263-2.048a8.932 8.932 0 0 1 8.934 8.934v24.875a4.312 4.312 0 0 1-4.102 4.31Z"/>
  <path fill="#fff" d="M58.548 43.863a4.423 4.423 0 0 1-3.076-1.234 4.434 4.434 0 0 1-1.384-3.23v-27.26c0-3.17 2.543-5.726 5.783-5.825l64.158-1.936c4.813 0 8.731 3.824 8.731 8.52v23.505c0 2.218-1.775 4.04-4.045 4.149l-69.95 3.31h-.217Zm65.486-39.33L59.881 6.47c-3.16.094-5.633 2.586-5.633 5.67v27.264c0 1.191.476 2.298 1.333 3.117a4.276 4.276 0 0 0 3.179 1.187l69.95-3.31c2.186-.104 3.9-1.856 3.9-3.994v-23.51c-.005-4.61-3.853-8.36-8.576-8.36Z" opacity=".85"/>
  <path fill="#fff" d="M64.53 18.144c.084.01.154.024.225.052.066.028.132.07.198.127.066.056.136.132.217.226l8.194 9.697a9.563 9.563 0 0 1-.08-.706 11.31 11.31 0 0 1-.038-.646l-.325-9.075 2.445-.09.537 14.925-1.437.052a1.213 1.213 0 0 1-.55-.085c-.147-.061-.293-.184-.439-.358l-8.161-9.66c.028.222.051.439.07.655.02.217.029.415.038.594l.33 9.165-2.445.09-.536-14.925 1.455-.052.301.014Zm23.255-.852.08 2.208-6.617.24.15 4.14 5.214-.188.076 2.138-5.214.188.15 4.22 6.618-.24.08 2.218-9.415.34-.536-14.925 9.414-.34Zm1.022-.038 2.33-.085c.241-.01.444.043.613.15a.858.858 0 0 1 .344.448l2.859 8.835c.07.217.136.457.197.711.062.255.123.528.18.815.042-.292.094-.565.15-.829.057-.259.118-.504.184-.725l2.609-9.033c.047-.16.15-.31.31-.447a.919.919 0 0 1 .59-.217l.814-.028c.24-.01.443.042.603.15a.92.92 0 0 1 .348.448l3.231 8.826c.17.433.316.918.443 1.45.037-.268.08-.532.122-.782.043-.25.09-.48.137-.697l2.218-9.018a.823.823 0 0 1 .306-.457.963.963 0 0 1 .594-.207l2.175-.08-4.097 15.094-2.51.089-3.631-10.078c-.047-.128-.094-.269-.146-.42a8.406 8.406 0 0 1-.146-.48 5.78 5.78 0 0 1-.113.49 12.64 12.64 0 0 1-.113.428l-2.925 10.319-2.51.09-5.166-14.76Zm31.083 1.601a.794.794 0 0 1-.25.33.665.665 0 0 1-.353.103.918.918 0 0 1-.471-.14 15.799 15.799 0 0 0-.622-.335 4.976 4.976 0 0 0-.833-.325 3.515 3.515 0 0 0-1.117-.123c-.386.015-.72.071-1.003.175a2.07 2.07 0 0 0-.706.414 1.61 1.61 0 0 0-.419.607 1.94 1.94 0 0 0-.118.764c.014.353.122.64.325.866.202.226.471.42.801.57.329.155.701.287 1.12.405.42.118.843.24 1.281.372.434.132.862.287 1.281.47.42.18.796.415 1.131.703.334.287.607.645.819 1.069.212.428.33.951.353 1.568a5.132 5.132 0 0 1-.277 1.907 4.319 4.319 0 0 1-.957 1.573 4.829 4.829 0 0 1-1.587 1.093c-.631.273-1.361.424-2.185.457a7.01 7.01 0 0 1-1.408-.09 7.49 7.49 0 0 1-1.342-.348 6.973 6.973 0 0 1-1.211-.575 5.814 5.814 0 0 1-1.012-.767l.758-1.361c.071-.1.16-.184.264-.255a.653.653 0 0 1 .353-.113c.174-.005.363.057.565.193.203.132.448.283.725.443.278.16.603.306.975.433s.82.184 1.333.165c.791-.028 1.399-.24 1.818-.631.419-.39.617-.937.593-1.639-.014-.39-.122-.706-.329-.951a2.44 2.44 0 0 0-.801-.598 6.01 6.01 0 0 0-1.121-.391 36.228 36.228 0 0 1-1.271-.335 10.57 10.57 0 0 1-1.277-.452 4.046 4.046 0 0 1-1.13-.716 3.375 3.375 0 0 1-.819-1.135c-.212-.456-.33-1.026-.358-1.71a4.087 4.087 0 0 1 .268-1.6 4.1 4.1 0 0 1 .9-1.409c.4-.414.899-.753 1.497-1.017.598-.263 1.286-.41 2.063-.438.881-.033 1.7.076 2.449.325.754.25 1.399.612 1.94 1.088l-.635 1.361Z"/>
  <path fill="url(#k)" d="M29.043 76.471c-.043.076-2.61 1.969-2.61 1.969s.57 4.06 2.873 5.666c2.534 1.76 6.113-1.451 6.113-1.451s2.85.678 4.361-5.251c.349-1.361-1.657-1.474-4.078-1.225-3.122.32-6.66.292-6.66.292Z"/>
  <path fill="url(#l)" d="M22.549 92.3a12.852 12.852 0 0 1 3.922-1.822c.528-.142 3.372.682 5.13.64 2.41-.056 4.869-1.154 6.856-.66 1.978.495 3.594 1.136 4.526 1.8 2.793 1.987 4.437 5.694 5.435 9.367-1.893 1.945-4.276 2.807-4.276 2.807l-.438 17.844-10.554 5.407-12.043-6.047.434-17.44s-3.825-1.78-4.107-2.43c-.283-.65 1.738-7.144 5.114-9.466Z"/>
  <path fill="url(#m)" d="M17.608 101.686s-5.124 14.209 6.56 20.049c2.426-.321 1.493-4.352 1.493-4.352s-5.077-1.126-3.55-12.979c-1.404-1.154-4.503-2.718-4.503-2.718Z"/>
  <path fill="url(#n)" d="M48.173 101.686s3.527 14.835-6.56 20.049c-2.426-.321-1.493-4.352-1.493-4.352s4.092-2.016 3.55-12.979c1.404-1.154 4.503-2.718 4.503-2.718Z"/>
  <path fill="url(#o)" d="M43.077 122.733H21.993a1.029 1.029 0 0 1-1.027-1.027v-13.577a1.03 1.03 0 0 1 1.026-1.027h21.09a1.03 1.03 0 0 1 1.026 1.027v13.577a1.036 1.036 0 0 1-1.031 1.027Z"/>
  <path fill="url(#p)" d="M54.516 127.433c-.084-.023-.17-.047-.264-.066-2.646-.607-8.769-.282-8.769-.282l-.25.673-.414 3.353s5.83 1.051 8.703 1.051c.293 0 .561-.043.806-.123 2.161-.669 2.416-3.979.188-4.606Z"/>
  <path fill="url(#q)" d="m43.727 126.896 1.036.043a1.992 1.992 0 0 1 1.455.753c.377.457.565 1.065.532 1.682a1.935 1.935 0 0 1-.56 1.276 1.572 1.572 0 0 1-1.215.461l-1.587-.113.339-4.102Z"/>
  <path fill="url(#r)" d="m17.881 127.716-.23-.683s-6.109-.513-8.774.014c-.095.019-.18.038-.264.056-2.242.556-2.068 3.872.07 4.611.245.085.51.137.801.146 2.873.09 8.727-.782 8.727-.782l-.33-3.362Z"/>
  <path fill="url(#s)" d="m19.412 126.896-1.037.014c-.555.005-1.087.264-1.474.707a2.433 2.433 0 0 0-.574 1.662c.014.495.202.961.527 1.295.325.335.759.514 1.201.5l1.587-.066-.23-4.112Z"/>
  <path fill="url(#t)" d="M54.997 116.86c-1.2-2.764-4.14-3.212-6.64-1.921-.043.056-15.876 8.171-29.84 11.727.4 1.281.608 2.646.65 3.984.01.297.005.593-.014.885 10.71-.551 22.328-4.121 32.317-7.257 3.094-.999 4.855-4.352 3.527-7.418Z"/>
  <path fill="url(#u)" d="M43.802 130.866c-.042-1.544.26-2.981.9-4.313.019-.062.042-.118.06-.179-.795-.245-1.826-.58-3.178-1.041-9.914-3.396-17.477-6.82-24.697-10.762-2.802-1.53-5.995-.503-6.89 2.812-.8 2.962.961 5.491 3.631 6.381 7.992 2.661 3.83 1.922 6.443 2.76 7.008 2.167 15.73 4.14 23.755 4.682a4.287 4.287 0 0 1-.024-.34Z"/>
  <path fill="url(#v)" d="M26.467 90.478s1.064 4.62 6.245 4.525c5.274-.094 5.74-4.54 5.74-4.54l-3.442-.739-.287-3.838-5.18.381-.095 3.645-2.981.566Z"/>
  <path fill="url(#w)" d="M30.729 75.793s-4.992 9.669.927 12.014c4.178 1.653 6.796-6.419 6.014-8.609-1.205-3.381-2.001-2.98-2.001-2.98l-4.94-.425Z"/>
  <path fill="url(#x)" d="M38.876 74.917c2.468.678.358 6.024-3.353 4.762-3.711-1.263-5.17-1.248-5.75-.226-.58 1.017-.702 4.638-1.96 2.849-1.374-1.96-2.142-5.897-.456-7.168 1.507-1.135 1.86-2.892 3.669-2.83 2.401.08 4.257-.985 5.34-.217 1.243.876.692 2.331 2.51 2.83Z"/>
  <path fill="url(#y)" d="M29.542 80.281s-1.064-1.144-1.234.236c-.17 1.38.377 3.16 1.017 2.185.64-.98.217-2.42.217-2.42Z"/>
  <defs>
    <linearGradient id="a" x1="148.908" x2="52.59" y1="145.161" y2="58.757" gradientUnits="userSpaceOnUse">
      <stop stop-color="#B37CFF"/>
      <stop offset="1" stop-color="#F895E7"/>
    </linearGradient>
    <linearGradient id="b" x1="102.083" x2="132.188" y1="93.528" y2="88.796" gradientUnits="userSpaceOnUse">
      <stop stop-color="#B37CFF"/>
      <stop offset="1" stop-color="#F895E7"/>
    </linearGradient>
    <linearGradient id="c" x1="118.613" x2="126.435" y1="101.644" y2="109.554" gradientUnits="userSpaceOnUse">
      <stop stop-color="#A737D5"/>
      <stop offset="1" stop-color="#EF497A"/>
    </linearGradient>
    <linearGradient id="d" x1="31.491" x2="52.238" y1="61.939" y2="31.086" gradientUnits="userSpaceOnUse">
      <stop stop-color="#A737D5"/>
      <stop offset="1" stop-color="#EF497A"/>
    </linearGradient>
    <linearGradient id="e" x1="57.731" x2="15.902" y1="58.85" y2="58.85" gradientUnits="userSpaceOnUse">
      <stop stop-color="#B37CFF"/>
      <stop offset="1" stop-color="#F895E7"/>
    </linearGradient>
    <linearGradient id="f" x1="34.025" x2="24.552" y1="66.699" y2="81.304" gradientUnits="userSpaceOnUse">
      <stop stop-color="#A737D5"/>
      <stop offset="1" stop-color="#EF497A"/>
    </linearGradient>
    <linearGradient id="g" x1="72.215" x2="49.115" y1="72.927" y2="164.436" gradientUnits="userSpaceOnUse">
      <stop stop-color="#53D8FF"/>
      <stop offset="1" stop-color="#3840F7"/>
    </linearGradient>
    <linearGradient id="h" x1="99.4" x2="8.78" y1="13.242" y2="142.066" gradientUnits="userSpaceOnUse">
      <stop stop-color="#53D8FF"/>
      <stop offset="1" stop-color="#3840F7"/>
    </linearGradient>
    <linearGradient id="i" x1="56.434" x2="104.834" y1="40.602" y2="-33.908" gradientUnits="userSpaceOnUse">
      <stop stop-color="#A737D5"/>
      <stop offset="1" stop-color="#EF497A"/>
    </linearGradient>
    <linearGradient id="j" x1="74.885" x2="126.303" y1="52.724" y2="-26.433" gradientUnits="userSpaceOnUse">
      <stop stop-color="#A737D5"/>
      <stop offset="1" stop-color="#EF497A"/>
    </linearGradient>
    <linearGradient id="k" x1="44.397" x2="33.86" y1="62.611" y2="77.585" gradientUnits="userSpaceOnUse">
      <stop stop-color="#2B3582"/>
      <stop offset="1" stop-color="#150E42"/>
    </linearGradient>
    <linearGradient id="l" x1="32.505" x2="35.531" y1="89.332" y2="180.886" gradientUnits="userSpaceOnUse">
      <stop stop-color="#FDF53F"/>
      <stop offset="1" stop-color="#D93C65"/>
    </linearGradient>
    <linearGradient id="m" x1="14.989" x2="35.042" y1="97.866" y2="146.306" gradientUnits="userSpaceOnUse">
      <stop stop-color="#F9B776"/>
      <stop offset="1" stop-color="#F47960"/>
    </linearGradient>
    <linearGradient id="n" x1="50.538" x2="30.485" y1="97.762" y2="146.202" gradientUnits="userSpaceOnUse">
      <stop stop-color="#F9B776"/>
      <stop offset="1" stop-color="#F47960"/>
    </linearGradient>
    <linearGradient id="o" x1="16.62" x2="42.349" y1="134.736" y2="102.701" gradientUnits="userSpaceOnUse">
      <stop stop-color="#53D8FF"/>
      <stop offset="1" stop-color="#3840F7"/>
    </linearGradient>
    <linearGradient id="p" x1="62.529" x2="4.477" y1="129.712" y2="129.016" gradientUnits="userSpaceOnUse">
      <stop stop-color="#2B3582"/>
      <stop offset="1" stop-color="#150E42"/>
    </linearGradient>
    <linearGradient id="q" x1="52.07" x2="40.502" y1="109.771" y2="141.102" gradientUnits="userSpaceOnUse">
      <stop stop-color="#F9B776"/>
      <stop offset="1" stop-color="#F47960"/>
    </linearGradient>
    <linearGradient id="r" x1="24.686" x2="-33.357" y1="129.497" y2="128.801" gradientUnits="userSpaceOnUse">
      <stop stop-color="#2B3582"/>
      <stop offset="1" stop-color="#150E42"/>
    </linearGradient>
    <linearGradient id="s" x1="28.895" x2="17.321" y1="100.329" y2="131.676" gradientUnits="userSpaceOnUse">
      <stop stop-color="#F9B776"/>
      <stop offset="1" stop-color="#F47960"/>
    </linearGradient>
    <linearGradient id="t" x1="-13.14" x2="69.41" y1="145.18" y2="111.401" gradientUnits="userSpaceOnUse">
      <stop stop-color="#CE1567"/>
      <stop offset="1" stop-color="#7A1DBC"/>
    </linearGradient>
    <linearGradient id="u" x1="36.778" x2="9.384" y1="136.548" y2="98.571" gradientUnits="userSpaceOnUse">
      <stop stop-color="#CE1567"/>
      <stop offset="1" stop-color="#7A1DBC"/>
    </linearGradient>
    <linearGradient id="v" x1="32.593" x2="32.326" y1="101.866" y2="78.651" gradientUnits="userSpaceOnUse">
      <stop stop-color="#F9B776"/>
      <stop offset="1" stop-color="#F47960"/>
    </linearGradient>
    <linearGradient id="w" x1="32.034" x2="35.453" y1="87.534" y2="70.888" gradientUnits="userSpaceOnUse">
      <stop stop-color="#F9B776"/>
      <stop offset="1" stop-color="#F47960"/>
    </linearGradient>
    <linearGradient id="x" x1="44.828" x2="32.971" y1="60.332" y2="77.181" gradientUnits="userSpaceOnUse">
      <stop stop-color="#2B3582"/>
      <stop offset="1" stop-color="#150E42"/>
    </linearGradient>
    <linearGradient id="y" x1="29.767" x2="27.316" y1="89.745" y2="63.229" gradientUnits="userSpaceOnUse">
      <stop stop-color="#F9B776"/>
      <stop offset="1" stop-color="#F47960"/>
    </linearGradient>
  </defs>
</svg>
